<svg xmlns="http://www.w3.org/2000/svg" viewBox="0 0 752.36 254.45"><defs><style>.cls-1{opacity:0.7;}.cls-2{fill:#fff;stroke:#e0e0e3;stroke-miterlimit:10;}</style></defs><title>Ресурс 1</title><g id="Слой_2" data-name="Слой 2"><g id="Layer_1" data-name="Layer 1"><g class="cls-1"><path class="cls-2" d="M718.68,42.55c18.1,0,32.47,20.4,33.08,21.27a.57.57,0,0,1,0,.65c-.6.87-15,21.27-33.08,21.27s-32.47-20.4-33.08-21.27a.57.57,0,0,1,0-.65C686.21,62.95,700.58,42.55,718.68,42.55Zm31.91,21.59C748.66,61.5,735,43.68,718.68,43.68s-30,17.82-31.91,20.46c1.93,2.63,15.62,20.46,31.91,20.46S748.66,66.77,750.59,64.14Z"/></g><g class="cls-1"><path class="cls-2" d="M686.08,42.55c18.1,0,32.47,20.4,33.08,21.27a.57.57,0,0,1,0,.65c-.6.87-15,21.27-33.08,21.27S653.61,65.33,653,64.46a.57.57,0,0,1,0-.65C653.61,62.95,668,42.55,686.08,42.55ZM718,64.14c-1.93-2.63-15.62-20.46-31.91-20.46s-30,17.82-31.91,20.46c1.93,2.63,15.61,20.46,31.91,20.46S716.05,66.77,718,64.14Z"/></g><g class="cls-1"><path class="cls-2" d="M653.47,42.55c18.1,0,32.47,20.4,33.07,21.27a.57.57,0,0,1,0,.65c-.6.87-15,21.27-33.07,21.27S621,65.33,620.4,64.46a.57.57,0,0,1,0-.65C621,62.95,635.37,42.55,653.47,42.55Zm31.91,21.59c-1.93-2.63-15.62-20.46-31.9-20.46s-30,17.82-31.91,20.46c1.93,2.63,15.62,20.46,31.91,20.46S683.45,66.77,685.38,64.14Z"/></g><g class="cls-1"><path class="cls-2" d="M620.86,42.55c18.1,0,32.47,20.4,33.08,21.27a.57.57,0,0,1,0,.65c-.6.87-15,21.27-33.08,21.27s-32.47-20.4-33.07-21.27a.57.57,0,0,1,0-.65C588.39,62.95,602.76,42.55,620.86,42.55Zm31.91,21.59c-1.93-2.63-15.62-20.46-31.91-20.46S590.89,61.5,589,64.14c1.93,2.63,15.62,20.46,31.91,20.46S650.84,66.77,652.77,64.14Z"/></g><g class="cls-1"><path class="cls-2" d="M588.26,42.55c18.1,0,32.47,20.4,33.07,21.27a.57.57,0,0,1,0,.65c-.6.87-15,21.27-33.07,21.27s-32.47-20.4-33.07-21.27a.57.57,0,0,1,0-.65C555.79,62.95,570.15,42.55,588.26,42.55Zm31.91,21.59c-1.93-2.63-15.62-20.46-31.91-20.46s-30,17.82-31.91,20.46C558.28,66.77,572,84.6,588.26,84.6S618.23,66.77,620.16,64.14Z"/></g><g class="cls-1"><path class="cls-2" d="M555.65,42.55c18.1,0,32.47,20.4,33.07,21.27a.57.57,0,0,1,0,.65c-.6.87-15,21.27-33.07,21.27s-32.47-20.4-33.08-21.27a.57.57,0,0,1,0-.65C523.18,62.95,537.55,42.55,555.65,42.55Zm31.91,21.59c-1.93-2.63-15.62-20.46-31.91-20.46s-30,17.82-31.91,20.46c1.93,2.63,15.62,20.46,31.91,20.46S585.63,66.77,587.56,64.14Z"/></g><g class="cls-1"><path class="cls-2" d="M523,42.55c18.1,0,32.47,20.4,33.07,21.27a.57.57,0,0,1,0,.65c-.6.87-15,21.27-33.07,21.27S490.57,65.33,490,64.46a.57.57,0,0,1,0-.65C490.57,62.95,504.94,42.55,523,42.55Zm31.91,21.59C553,61.5,539.33,43.68,523,43.68s-30,17.82-31.91,20.46C493.06,66.77,506.75,84.6,523,84.6S553,66.77,554.95,64.14Z"/></g><g class="cls-1"><path class="cls-2" d="M490.43,42.55c18.1,0,32.47,20.4,33.08,21.27a.57.57,0,0,1,0,.65c-.6.87-15,21.27-33.08,21.27a.57.57,0,1,1,0-1.13c16.29,0,30-17.82,31.91-20.46-1.93-2.63-15.62-20.46-31.91-20.46a.57.57,0,0,1,0-1.13Z"/></g><g class="cls-1"><path class="cls-2" d="M229.57,42.55c18.1,0,32.47,20.4,33.08,21.27a.57.57,0,0,1,0,.65c-.6.87-15,21.27-33.08,21.27s-32.47-20.4-33.07-21.27a.57.57,0,0,1,0-.65C197.1,62.95,211.47,42.55,229.57,42.55Zm31.91,21.59c-1.93-2.63-15.62-20.46-31.91-20.46s-30,17.82-31.91,20.46c1.93,2.63,15.62,20.46,31.91,20.46S259.55,66.77,261.48,64.14Z"/></g><g class="cls-1"><path class="cls-2" d="M197,42.55c18.1,0,32.47,20.4,33.08,21.27a.57.57,0,0,1,0,.65c-.6.87-15,21.27-33.08,21.27s-32.47-20.4-33.07-21.27a.57.57,0,0,1,0-.65C164.49,62.95,178.86,42.55,197,42.55Zm31.91,21.59C226.94,61.5,213.25,43.68,197,43.68S167,61.5,165.05,64.14C167,66.77,180.67,84.6,197,84.6S226.94,66.77,228.87,64.14Z"/></g><g class="cls-1"><path class="cls-2" d="M164.36,42.55c18.1,0,32.47,20.4,33.07,21.27a.57.57,0,0,1,0,.65c-.6.87-15,21.27-33.07,21.27s-32.47-20.4-33.08-21.27a.57.57,0,0,1,0-.65C131.88,62.95,146.25,42.55,164.36,42.55Zm31.91,21.59c-1.94-2.63-15.62-20.46-31.91-20.46s-30,17.82-31.91,20.46c1.94,2.63,15.62,20.46,31.91,20.46S194.33,66.77,196.26,64.14Z"/></g><g class="cls-1"><path class="cls-2" d="M131.75,42.55c18.1,0,32.47,20.4,33.07,21.27a.57.57,0,0,1,0,.65c-.6.87-15,21.27-33.07,21.27S99.27,65.33,98.67,64.46a.57.57,0,0,1,0-.65C99.27,62.95,113.64,42.55,131.75,42.55Zm31.91,21.59C161.72,61.5,148,43.68,131.75,43.68s-30,17.82-31.91,20.46c1.93,2.63,15.61,20.46,31.91,20.46S161.72,66.77,163.66,64.14Z"/></g><g class="cls-1"><path class="cls-2" d="M99.14,42.55c18.1,0,32.47,20.4,33.07,21.27a.57.57,0,0,1,0,.65c-.6.87-15,21.27-33.07,21.27S66.67,65.33,66.07,64.46a.57.57,0,0,1,0-.65C66.67,62.95,81,42.55,99.14,42.55ZM131,64.14c-1.93-2.63-15.62-20.46-31.91-20.46s-30,17.82-31.91,20.46C69.16,66.77,82.84,84.6,99.14,84.6S129.12,66.77,131,64.14Z"/></g><g class="cls-1"><path class="cls-2" d="M66.54,42.55c18.1,0,32.47,20.4,33.07,21.27a.57.57,0,0,1,0,.65c-.6.87-15,21.27-33.07,21.27S34.06,65.33,33.46,64.46a.57.57,0,0,1,0-.65C34.06,62.95,48.43,42.55,66.54,42.55Zm31.9,21.59c-1.93-2.63-15.62-20.46-31.9-20.46s-30,17.82-31.91,20.46C36.56,66.77,50.24,84.6,66.54,84.6S96.51,66.77,98.44,64.14Z"/></g><g class="cls-1"><path class="cls-2" d="M33.93,42.55C52,42.55,66.4,62.95,67,63.82a.57.57,0,0,1,0,.65c-.6.87-15,21.27-33.07,21.27S1.45,65.33.85,64.46a.57.57,0,0,1,0-.65C1.45,62.95,15.82,42.55,33.93,42.55ZM65.84,64.14C63.9,61.5,50.21,43.68,33.93,43.68S3.95,61.5,2,64.14C3.95,66.77,17.63,84.6,33.93,84.6S63.9,66.77,65.84,64.14Z"/></g><g class="cls-1"><path class="cls-2" d="M1.32,42.55c18.1,0,32.47,20.4,33.07,21.27a.55.55,0,0,1,0,.65c-.6.87-15,21.27-33.07,21.27a.57.57,0,1,1,0-1.13c16.29,0,30-17.82,31.91-20.46C31.29,61.51,17.61,43.68,1.32,43.68a.57.57,0,1,1,0-1.13Z"/></g><g class="cls-1"><path class="cls-2" d="M262.18,42.55c18.1,0,32.47,20.4,33.07,21.26a.56.56,0,0,1,0,.65c-.6.87-15,21.27-33.07,21.27s-32.47-20.4-33.07-21.27a.57.57,0,0,1,0-.65C229.71,62.95,244.08,42.55,262.18,42.55Zm31.91,21.58c-1.93-2.64-15.62-20.45-31.91-20.45s-30,17.82-31.91,20.45c1.93,2.63,15.62,20.46,31.91,20.46S292.16,66.77,294.09,64.13Z"/></g><g class="cls-1"><path class="cls-2" d="M294.79,42.55c18.1,0,32.47,20.4,33.07,21.26a.57.57,0,0,1,0,.65c-.6.87-15,21.27-33.07,21.27s-32.47-20.4-33.07-21.27a.57.57,0,0,1,0-.65C262.31,62.95,276.69,42.55,294.79,42.55Zm31.91,21.58c-1.93-2.64-15.61-20.45-31.91-20.45s-30,17.82-31.91,20.45c1.94,2.63,15.62,20.46,31.91,20.46S324.76,66.77,326.69,64.13Z"/></g><g class="cls-1"><path class="cls-2" d="M327.39,42.55c18.1,0,32.48,20.4,33.08,21.26a.57.57,0,0,1,0,.65c-.6.87-15,21.27-33.08,21.27s-32.47-20.4-33.07-21.27a.57.57,0,0,1,0-.65C294.92,62.95,309.3,42.55,327.39,42.55ZM359.3,64.13c-1.93-2.63-15.61-20.45-31.91-20.45s-30,17.82-31.91,20.45c1.93,2.63,15.62,20.46,31.91,20.46S357.37,66.77,359.3,64.13Z"/></g><g class="cls-1"><path class="cls-2" d="M360,42.55c18.1,0,32.47,20.4,33.08,21.26a.57.57,0,0,1,0,.65c-.6.87-15,21.27-33.08,21.27s-32.47-20.4-33.07-21.27a.57.57,0,0,1,0-.65C327.53,62.95,341.9,42.55,360,42.55Zm31.91,21.58C390,61.5,376.3,43.68,360,43.68S330,61.5,328.09,64.13C330,66.77,343.71,84.6,360,84.6S390,66.77,391.91,64.13Z"/></g><g class="cls-1"><path class="cls-2" d="M392.61,42.55c18.1,0,32.47,20.4,33.07,21.26a.57.57,0,0,1,0,.65c-.6.87-15,21.27-33.07,21.27s-32.47-20.4-33.07-21.27a.56.56,0,0,1,0-.65C360.14,62.95,374.51,42.55,392.61,42.55Zm31.91,21.58c-1.93-2.64-15.61-20.45-31.91-20.45s-30,17.82-31.91,20.45c1.93,2.63,15.62,20.46,31.91,20.46S422.58,66.77,424.51,64.13Z"/></g><g class="cls-1"><path class="cls-2" d="M425.21,42.55c18.1,0,32.47,20.4,33.08,21.26a.57.57,0,0,1,0,.65c-.6.87-15,21.27-33.08,21.27s-32.47-20.4-33.07-21.27a.56.56,0,0,1,0-.65C392.74,62.95,407.11,42.55,425.21,42.55Zm31.91,21.58c-1.93-2.63-15.62-20.45-31.91-20.45s-30,17.82-31.91,20.45c1.93,2.63,15.62,20.46,31.91,20.46S455.19,66.77,457.12,64.13Z"/></g><g class="cls-1"><path class="cls-2" d="M457.82,42.55c18.1,0,32.47,20.4,33.08,21.26a.57.57,0,0,1,0,.65c-.6.87-15,21.27-33.08,21.27s-32.47-20.4-33.07-21.27a.56.56,0,0,1,0-.65C425.35,62.95,439.72,42.55,457.82,42.55Zm31.91,21.58c-1.93-2.64-15.62-20.45-31.91-20.45s-30,17.82-31.91,20.45c1.93,2.63,15.62,20.46,31.91,20.46S487.8,66.77,489.73,64.13Z"/></g><g class="cls-1"><path class="cls-2" d="M490.43,42.55a.57.57,0,1,1,0,1.13c-16.3,0-30,17.82-31.91,20.45,1.93,2.63,15.62,20.46,31.91,20.46a.57.57,0,1,1,0,1.13c-18.1,0-32.47-20.4-33.08-21.27a.57.57,0,0,1,0-.65C458,62.95,472.33,42.55,490.43,42.55Z"/></g><g class="cls-1"><path class="cls-2" d="M718.68.5c18.1,0,32.47,20.4,33.08,21.27a.57.57,0,0,1,0,.65c-.6.87-15,21.27-33.08,21.27s-32.47-20.4-33.08-21.27a.57.57,0,0,1,0-.65C686.21,20.9,700.58.5,718.68.5Zm31.91,21.59C748.66,19.46,735,1.63,718.68,1.63s-30,17.83-31.91,20.46c1.93,2.63,15.62,20.46,31.91,20.46S748.66,24.73,750.59,22.09Z"/></g><g class="cls-1"><path class="cls-2" d="M686.08.5c18.1,0,32.47,20.4,33.08,21.27a.57.57,0,0,1,0,.65c-.6.87-15,21.27-33.08,21.27S653.61,23.29,653,22.42a.57.57,0,0,1,0-.65C653.61,20.9,668,.5,686.08.5ZM718,22.09c-1.93-2.64-15.62-20.46-31.91-20.46s-30,17.83-31.91,20.46c1.93,2.63,15.61,20.46,31.91,20.46S716.05,24.73,718,22.09Z"/></g><g class="cls-1"><path class="cls-2" d="M653.47.5c18.1,0,32.47,20.4,33.07,21.27a.57.57,0,0,1,0,.65c-.6.87-15,21.27-33.07,21.27S621,23.29,620.4,22.42a.57.57,0,0,1,0-.65C621,20.9,635.37.5,653.47.5Zm31.91,21.59c-1.93-2.64-15.62-20.46-31.9-20.46s-30,17.83-31.91,20.46c1.93,2.63,15.62,20.46,31.91,20.46S683.45,24.73,685.38,22.09Z"/></g><g class="cls-1"><path class="cls-2" d="M620.86.5c18.1,0,32.47,20.4,33.08,21.27a.57.57,0,0,1,0,.65c-.6.87-15,21.27-33.08,21.27s-32.47-20.4-33.07-21.27a.57.57,0,0,1,0-.65C588.39,20.9,602.76.5,620.86.5Zm31.91,21.59c-1.93-2.64-15.62-20.46-31.91-20.46s-30,17.83-31.91,20.46c1.93,2.63,15.62,20.46,31.91,20.46S650.84,24.73,652.77,22.09Z"/></g><g class="cls-1"><path class="cls-2" d="M588.26.5c18.1,0,32.47,20.4,33.07,21.27a.57.57,0,0,1,0,.65c-.6.87-15,21.27-33.07,21.27s-32.47-20.4-33.07-21.27a.57.57,0,0,1,0-.65C555.79,20.9,570.15.5,588.26.5Zm31.91,21.59c-1.93-2.64-15.62-20.46-31.91-20.46s-30,17.83-31.91,20.46c1.93,2.63,15.62,20.46,31.91,20.46S618.23,24.73,620.16,22.09Z"/></g><g class="cls-1"><path class="cls-2" d="M555.65.5c18.1,0,32.47,20.4,33.07,21.27a.57.57,0,0,1,0,.65c-.6.87-15,21.27-33.07,21.27s-32.47-20.4-33.08-21.27a.57.57,0,0,1,0-.65C523.18,20.9,537.55.5,555.65.5Zm31.91,21.59c-1.93-2.64-15.62-20.46-31.91-20.46s-30,17.83-31.91,20.46c1.93,2.63,15.62,20.46,31.91,20.46S585.63,24.73,587.56,22.09Z"/></g><g class="cls-1"><path class="cls-2" d="M523,.5c18.1,0,32.47,20.4,33.07,21.27a.57.57,0,0,1,0,.65c-.6.87-15,21.27-33.07,21.27S490.57,23.29,490,22.42a.57.57,0,0,1,0-.65C490.57,20.9,504.94.5,523,.5Zm31.91,21.59C553,19.46,539.33,1.63,523,1.63s-30,17.83-31.91,20.46c1.93,2.63,15.62,20.46,31.91,20.46S553,24.73,554.95,22.09Z"/></g><g class="cls-1"><path class="cls-2" d="M490.43.5c18.1,0,32.47,20.4,33.08,21.27a.57.57,0,0,1,0,.65c-.6.87-15,21.27-33.08,21.27a.57.57,0,1,1,0-1.13c16.29,0,30-17.82,31.91-20.46-1.93-2.64-15.62-20.46-31.91-20.46a.57.57,0,0,1,0-1.13Z"/></g><g class="cls-1"><path class="cls-2" d="M229.57.5c18.1,0,32.47,20.4,33.08,21.27a.57.57,0,0,1,0,.65c-.6.87-15,21.27-33.08,21.27s-32.47-20.4-33.07-21.27a.57.57,0,0,1,0-.65C197.1,20.9,211.47.5,229.57.5Zm31.91,21.59c-1.93-2.64-15.62-20.46-31.91-20.46s-30,17.83-31.91,20.46c1.93,2.63,15.62,20.46,31.91,20.46S259.55,24.73,261.48,22.09Z"/></g><g class="cls-1"><path class="cls-2" d="M197,.5c18.1,0,32.47,20.4,33.08,21.27a.57.57,0,0,1,0,.65c-.6.87-15,21.27-33.08,21.27s-32.47-20.4-33.07-21.27a.57.57,0,0,1,0-.65C164.49,20.9,178.86.5,197,.5Zm31.91,21.59C226.94,19.46,213.25,1.63,197,1.63s-30,17.83-31.91,20.46C167,24.73,180.67,42.55,197,42.55S226.94,24.73,228.87,22.09Z"/></g><g class="cls-1"><path class="cls-2" d="M164.36.5c18.1,0,32.47,20.4,33.07,21.27a.57.57,0,0,1,0,.65c-.6.87-15,21.27-33.07,21.27s-32.47-20.4-33.08-21.27a.57.57,0,0,1,0-.65C131.88,20.9,146.25.5,164.36.5Zm31.91,21.59c-1.94-2.64-15.62-20.46-31.91-20.46s-30,17.83-31.91,20.46c1.94,2.63,15.62,20.46,31.91,20.46S194.33,24.73,196.26,22.09Z"/></g><g class="cls-1"><path class="cls-2" d="M131.75.5c18.1,0,32.47,20.4,33.07,21.27a.57.57,0,0,1,0,.65c-.6.87-15,21.27-33.07,21.27S99.27,23.29,98.67,22.42a.57.57,0,0,1,0-.65C99.27,20.9,113.64.5,131.75.5Zm31.91,21.59C161.72,19.46,148,1.63,131.75,1.63s-30,17.83-31.91,20.46c1.93,2.63,15.61,20.46,31.91,20.46S161.72,24.73,163.66,22.09Z"/></g><g class="cls-1"><path class="cls-2" d="M99.14.5c18.1,0,32.47,20.4,33.07,21.27a.57.57,0,0,1,0,.65c-.6.87-15,21.27-33.07,21.27S66.67,23.29,66.07,22.42a.57.57,0,0,1,0-.65C66.67,20.9,81,.5,99.14.5ZM131,22.09c-1.93-2.64-15.62-20.46-31.91-20.46s-30,17.83-31.91,20.46c1.93,2.63,15.61,20.46,31.91,20.46S129.12,24.73,131,22.09Z"/></g><g class="cls-1"><path class="cls-2" d="M66.54.5C84.63.5,99,20.9,99.6,21.77a.57.57,0,0,1,0,.65c-.6.87-15,21.27-33.07,21.27S34.06,23.29,33.46,22.42a.57.57,0,0,1,0-.65C34.06,20.9,48.43.5,66.54.5Zm31.9,21.59C96.51,19.46,82.82,1.63,66.54,1.63s-30,17.83-31.91,20.46c1.93,2.63,15.62,20.46,31.91,20.46S96.51,24.73,98.44,22.09Z"/></g><g class="cls-1"><path class="cls-2" d="M33.93.5C52,.5,66.4,20.9,67,21.77a.57.57,0,0,1,0,.65c-.6.87-15,21.27-33.07,21.27S1.45,23.29.85,22.42a.57.57,0,0,1,0-.65C1.45,20.9,15.82.5,33.93.5ZM65.84,22.09C63.9,19.46,50.21,1.63,33.93,1.63S3.95,19.46,2,22.09c1.93,2.63,15.61,20.46,31.91,20.46S63.9,24.73,65.84,22.09Z"/></g><g class="cls-1"><path class="cls-2" d="M1.32.5c18.1,0,32.47,20.4,33.07,21.27a.55.55,0,0,1,0,.65c-.6.87-15,21.27-33.07,21.27a.57.57,0,1,1,0-1.13c16.29,0,30-17.82,31.91-20.46C31.29,19.46,17.61,1.63,1.32,1.63A.57.57,0,1,1,1.32.5Z"/></g><g class="cls-1"><path class="cls-2" d="M262.18.5c18.1,0,32.47,20.4,33.07,21.27a.56.56,0,0,1,0,.65c-.6.87-15,21.27-33.07,21.27s-32.47-20.4-33.07-21.27a.57.57,0,0,1,0-.65C229.71,20.9,244.08.5,262.18.5Zm31.91,21.59c-1.93-2.63-15.62-20.46-31.91-20.46s-30,17.82-31.91,20.46c1.93,2.64,15.62,20.46,31.91,20.46S292.16,24.72,294.09,22.09Z"/></g><g class="cls-1"><path class="cls-2" d="M294.79.5c18.1,0,32.47,20.4,33.07,21.27a.57.57,0,0,1,0,.65c-.6.87-15,21.27-33.07,21.27s-32.47-20.4-33.07-21.27a.57.57,0,0,1,0-.65C262.31,20.9,276.69.5,294.79.5Zm31.91,21.59c-1.93-2.63-15.61-20.46-31.91-20.46s-30,17.82-31.91,20.46c1.94,2.64,15.62,20.46,31.91,20.46S324.76,24.72,326.69,22.09Z"/></g><g class="cls-1"><path class="cls-2" d="M327.39.5c18.1,0,32.48,20.4,33.08,21.27a.57.57,0,0,1,0,.65c-.6.87-15,21.27-33.08,21.27s-32.47-20.4-33.07-21.27a.57.57,0,0,1,0-.65C294.92,20.9,309.3.5,327.39.5ZM359.3,22.09c-1.93-2.63-15.61-20.46-31.91-20.46s-30,17.82-31.91,20.46c1.93,2.64,15.62,20.46,31.91,20.46S357.37,24.72,359.3,22.09Z"/></g><g class="cls-1"><path class="cls-2" d="M360,.5c18.1,0,32.47,20.4,33.08,21.27a.57.57,0,0,1,0,.65c-.6.87-15,21.27-33.08,21.27s-32.47-20.4-33.07-21.27a.57.57,0,0,1,0-.65C327.53,20.9,341.9.5,360,.5Zm31.91,21.59C390,19.45,376.3,1.63,360,1.63s-30,17.82-31.91,20.46C330,24.73,343.71,42.55,360,42.55S390,24.72,391.91,22.09Z"/></g><g class="cls-1"><path class="cls-2" d="M392.61.5c18.1,0,32.47,20.4,33.07,21.27a.58.58,0,0,1,0,.65c-.6.87-15,21.27-33.07,21.27s-32.47-20.4-33.07-21.27a.56.56,0,0,1,0-.65C360.14,20.9,374.51.5,392.61.5Zm31.91,21.59c-1.93-2.63-15.61-20.46-31.91-20.46s-30,17.82-31.91,20.46c1.93,2.64,15.62,20.46,31.91,20.46S422.58,24.72,424.51,22.09Z"/></g><g class="cls-1"><path class="cls-2" d="M425.21.5c18.1,0,32.47,20.4,33.08,21.27a.57.57,0,0,1,0,.65c-.6.87-15,21.27-33.08,21.27s-32.47-20.4-33.07-21.27a.56.56,0,0,1,0-.65C392.74,20.9,407.11.5,425.21.5Zm31.91,21.59c-1.93-2.63-15.62-20.46-31.91-20.46s-30,17.82-31.91,20.46c1.93,2.64,15.62,20.46,31.91,20.46S455.19,24.72,457.12,22.09Z"/></g><g class="cls-1"><path class="cls-2" d="M457.82.5c18.1,0,32.47,20.4,33.08,21.27a.57.57,0,0,1,0,.65c-.6.87-15,21.27-33.08,21.27s-32.47-20.4-33.07-21.27a.56.56,0,0,1,0-.65C425.35,20.9,439.72.5,457.82.5Zm31.91,21.59c-1.93-2.63-15.62-20.46-31.91-20.46s-30,17.82-31.91,20.46c1.93,2.64,15.62,20.46,31.91,20.46S487.8,24.72,489.73,22.09Z"/></g><g class="cls-1"><path class="cls-2" d="M490.43.5a.57.57,0,1,1,0,1.13c-16.29,0-30,17.82-31.91,20.46,1.93,2.64,15.62,20.46,31.91,20.46a.57.57,0,1,1,0,1.13c-18.1,0-32.47-20.4-33.08-21.27a.57.57,0,0,1,0-.65C458,20.9,472.33.5,490.43.5Z"/></g><g class="cls-1"><path class="cls-2" d="M718.44,84.62c18.1,0,32.47,20.4,33.08,21.27a.57.57,0,0,1,0,.65c-.6.87-15,21.26-33.08,21.26s-32.47-20.4-33.08-21.26a.57.57,0,0,1,0-.65C686,105,700.33,84.62,718.44,84.62Zm31.91,21.59c-1.93-2.63-15.62-20.46-31.91-20.46s-30,17.83-31.91,20.46c1.93,2.63,15.62,20.45,31.91,20.45S748.41,108.85,750.35,106.22Z"/></g><g class="cls-1"><path class="cls-2" d="M685.83,84.62c18.1,0,32.47,20.4,33.08,21.27a.57.57,0,0,1,0,.65c-.6.87-15,21.26-33.08,21.26s-32.47-20.4-33.07-21.26a.57.57,0,0,1,0-.65C653.36,105,667.73,84.62,685.83,84.62Zm31.91,21.59c-1.93-2.63-15.62-20.46-31.91-20.46s-30,17.83-31.91,20.46c1.93,2.63,15.61,20.45,31.91,20.45S715.81,108.85,717.74,106.22Z"/></g><g class="cls-1"><path class="cls-2" d="M653.22,84.62c18.1,0,32.47,20.4,33.07,21.27a.57.57,0,0,1,0,.65c-.6.87-15,21.26-33.07,21.26s-32.47-20.4-33.08-21.26a.57.57,0,0,1,0-.65C620.75,105,635.12,84.62,653.22,84.62Zm31.9,21.59c-1.93-2.63-15.62-20.46-31.9-20.46s-30,17.83-31.91,20.46c1.93,2.63,15.62,20.45,31.91,20.45S683.2,108.85,685.13,106.22Z"/></g><g class="cls-1"><path class="cls-2" d="M620.62,84.62c18.1,0,32.47,20.4,33.08,21.27a.57.57,0,0,1,0,.65c-.6.87-15,21.26-33.08,21.26s-32.47-20.4-33.07-21.26a.57.57,0,0,1,0-.65C588.14,105,602.51,84.62,620.62,84.62Zm31.91,21.59c-1.93-2.63-15.62-20.46-31.91-20.46s-30,17.83-31.91,20.46c1.93,2.63,15.62,20.45,31.91,20.45S650.59,108.85,652.52,106.22Z"/></g><g class="cls-1"><path class="cls-2" d="M588,84.62c18.1,0,32.47,20.4,33.07,21.27a.57.57,0,0,1,0,.65c-.6.87-15,21.26-33.07,21.26s-32.47-20.4-33.07-21.26a.57.57,0,0,1,0-.65C555.54,105,569.9,84.62,588,84.62Zm31.91,21.59C618,103.58,604.3,85.75,588,85.75s-30,17.83-31.91,20.46c1.93,2.63,15.62,20.45,31.91,20.45S618,108.85,619.92,106.22Z"/></g><g class="cls-1"><path class="cls-2" d="M555.4,84.62c18.1,0,32.47,20.4,33.07,21.27a.57.57,0,0,1,0,.65c-.6.87-15,21.26-33.07,21.26s-32.47-20.4-33.08-21.26a.57.57,0,0,1,0-.65C522.93,105,537.3,84.62,555.4,84.62Zm31.91,21.59c-1.93-2.63-15.62-20.46-31.91-20.46s-30,17.83-31.91,20.46c1.93,2.63,15.62,20.45,31.91,20.45S585.38,108.85,587.31,106.22Z"/></g><g class="cls-1"><path class="cls-2" d="M522.79,84.62c18.1,0,32.47,20.4,33.08,21.27a.57.57,0,0,1,0,.65c-.6.87-15,21.26-33.08,21.26s-32.47-20.4-33.08-21.26a.57.57,0,0,1,0-.65C490.32,105,504.69,84.62,522.79,84.62Zm31.91,21.59c-1.93-2.63-15.62-20.46-31.91-20.46s-30,17.83-31.91,20.46c1.93,2.63,15.62,20.45,31.91,20.45S552.77,108.85,554.7,106.22Z"/></g><g class="cls-1"><path class="cls-2" d="M490.18,84.62c18.1,0,32.47,20.4,33.08,21.27a.57.57,0,0,1,0,.65c-.6.87-15,21.26-33.08,21.26a.57.57,0,1,1,0-1.13c16.3,0,30-17.82,31.91-20.45-1.93-2.63-15.62-20.46-31.91-20.46a.57.57,0,1,1,0-1.13Z"/></g><g class="cls-1"><path class="cls-2" d="M229.32,84.62c18.1,0,32.47,20.4,33.08,21.27a.57.57,0,0,1,0,.65c-.6.87-15,21.26-33.08,21.26s-32.47-20.4-33.07-21.26a.57.57,0,0,1,0-.65C196.85,105,211.22,84.62,229.32,84.62Zm31.91,21.59c-1.93-2.63-15.62-20.46-31.91-20.46s-30,17.83-31.91,20.46c1.93,2.63,15.62,20.45,31.91,20.45S259.3,108.85,261.23,106.22Z"/></g><g class="cls-1"><path class="cls-2" d="M196.71,84.62c18.1,0,32.47,20.4,33.08,21.27a.57.57,0,0,1,0,.65c-.6.87-15,21.26-33.08,21.26s-32.47-20.4-33.07-21.26a.57.57,0,0,1,0-.65C164.24,105,178.61,84.62,196.71,84.62Zm31.91,21.59c-1.93-2.63-15.62-20.46-31.91-20.46s-30,17.83-31.91,20.46c1.94,2.63,15.61,20.45,31.91,20.45S226.69,108.85,228.62,106.22Z"/></g><g class="cls-1"><path class="cls-2" d="M164.11,84.62c18.1,0,32.47,20.4,33.07,21.27a.57.57,0,0,1,0,.65c-.6.87-15,21.26-33.07,21.26s-32.47-20.4-33.08-21.26a.57.57,0,0,1,0-.65C131.63,105,146,84.62,164.11,84.62ZM196,106.22c-1.94-2.63-15.62-20.46-31.91-20.46s-30,17.83-31.91,20.46c1.93,2.63,15.62,20.45,31.91,20.45S194.08,108.85,196,106.22Z"/></g><g class="cls-1"><path class="cls-2" d="M131.5,84.62c18.1,0,32.47,20.4,33.07,21.27a.57.57,0,0,1,0,.65c-.6.87-15,21.26-33.07,21.26S99,107.41,98.42,106.54a.57.57,0,0,1,0-.65C99,105,113.4,84.62,131.5,84.62Zm31.91,21.59c-1.93-2.63-15.62-20.46-31.91-20.46s-30,17.83-31.91,20.46c1.93,2.63,15.61,20.45,31.91,20.45S161.48,108.85,163.41,106.22Z"/></g><g class="cls-1"><path class="cls-2" d="M98.89,84.62c18.1,0,32.47,20.4,33.07,21.27a.57.57,0,0,1,0,.65c-.6.87-15,21.26-33.07,21.26s-32.47-20.4-33.07-21.26a.57.57,0,0,1,0-.65C66.42,105,80.79,84.62,98.89,84.62Zm31.91,21.59c-1.93-2.63-15.62-20.46-31.91-20.46s-30,17.83-31.91,20.46c1.93,2.63,15.61,20.45,31.91,20.45S128.87,108.85,130.8,106.22Z"/></g><g class="cls-1"><path class="cls-2" d="M66.29,84.62c18.1,0,32.47,20.4,33.07,21.27a.57.57,0,0,1,0,.65c-.6.87-15,21.26-33.07,21.26s-32.47-20.4-33.08-21.26a.57.57,0,0,1,0-.65C33.81,105,48.18,84.62,66.29,84.62Zm31.91,21.59c-1.94-2.63-15.62-20.46-31.91-20.46s-30,17.83-31.91,20.46c1.93,2.63,15.61,20.45,31.91,20.45S96.26,108.85,98.19,106.22Z"/></g><g class="cls-1"><path class="cls-2" d="M33.68,84.62c18.1,0,32.47,20.4,33.07,21.27a.57.57,0,0,1,0,.65c-.6.87-15,21.26-33.07,21.26S1.2,107.41.6,106.54a.57.57,0,0,1,0-.65C1.2,105,15.57,84.62,33.68,84.62Zm31.91,21.59C63.65,103.58,50,85.75,33.68,85.75s-30,17.83-31.91,20.46c1.93,2.63,15.61,20.45,31.91,20.45S63.65,108.85,65.59,106.22Z"/></g><g class="cls-1"><path class="cls-2" d="M1.07,84.62c18.1,0,32.47,20.4,33.07,21.27a.56.56,0,0,1,0,.65c-.6.87-15,21.26-33.07,21.26a.57.57,0,1,1,0-1.13c16.3,0,30-17.82,31.91-20.45C31,103.58,17.36,85.76,1.07,85.76a.57.57,0,1,1,0-1.13Z"/></g><g class="cls-1"><path class="cls-2" d="M261.93,84.62c18.1,0,32.48,20.4,33.08,21.27a.56.56,0,0,1,0,.65c-.6.87-15,21.27-33.08,21.27s-32.47-20.4-33.07-21.27a.57.57,0,0,1,0-.65C229.46,105,243.83,84.62,261.93,84.62Zm31.91,21.59c-1.93-2.63-15.61-20.46-31.91-20.46S232,103.58,230,106.21c1.93,2.64,15.62,20.46,31.91,20.46S291.91,108.85,293.84,106.21Z"/></g><g class="cls-1"><path class="cls-2" d="M294.54,84.62c18.1,0,32.47,20.4,33.07,21.27a.57.57,0,0,1,0,.65c-.6.87-15,21.27-33.07,21.27s-32.47-20.4-33.07-21.27a.57.57,0,0,1,0-.65C262.07,105,276.44,84.62,294.54,84.62Zm31.91,21.59c-1.93-2.63-15.61-20.46-31.91-20.46s-30,17.82-31.91,20.46c1.93,2.64,15.62,20.46,31.91,20.46S324.51,108.85,326.45,106.21Z"/></g><g class="cls-1"><path class="cls-2" d="M327.14,84.62c18.1,0,32.48,20.4,33.08,21.27a.57.57,0,0,1,0,.65c-.6.87-15,21.27-33.08,21.27s-32.47-20.4-33.07-21.27a.57.57,0,0,1,0-.65C294.68,105,309,84.62,327.14,84.62Zm31.91,21.59c-1.93-2.63-15.62-20.46-31.91-20.46s-30,17.82-31.9,20.46c1.93,2.64,15.62,20.46,31.9,20.46S357.12,108.85,359.05,106.21Z"/></g><g class="cls-1"><path class="cls-2" d="M359.75,84.62c18.1,0,32.47,20.4,33.08,21.27a.57.57,0,0,1,0,.65c-.6.87-15,21.27-33.08,21.27s-32.47-20.4-33.07-21.27a.57.57,0,0,1,0-.65C327.28,105,341.66,84.62,359.75,84.62Zm31.91,21.59c-1.93-2.63-15.62-20.46-31.91-20.46s-30,17.82-31.91,20.46c1.93,2.64,15.62,20.46,31.91,20.46S389.73,108.85,391.66,106.21Z"/></g><g class="cls-1"><path class="cls-2" d="M392.36,84.62c18.1,0,32.47,20.4,33.07,21.27a.58.58,0,0,1,0,.65c-.6.87-15,21.27-33.07,21.27s-32.47-20.4-33.07-21.27a.56.56,0,0,1,0-.65C359.89,105,374.26,84.62,392.36,84.62Zm31.91,21.59c-1.93-2.63-15.61-20.46-31.91-20.46s-30,17.82-31.91,20.46c1.93,2.64,15.62,20.46,31.91,20.46S422.34,108.85,424.27,106.21Z"/></g><g class="cls-1"><path class="cls-2" d="M425,84.62c18.1,0,32.47,20.4,33.08,21.27a.57.57,0,0,1,0,.65c-.6.87-15,21.27-33.08,21.27s-32.47-20.4-33.07-21.27a.56.56,0,0,1,0-.65C392.5,105,406.87,84.62,425,84.62Zm31.91,21.59c-1.93-2.63-15.62-20.46-31.91-20.46s-30,17.82-31.91,20.46c1.93,2.64,15.62,20.46,31.91,20.46S454.95,108.85,456.88,106.21Z"/></g><g class="cls-1"><path class="cls-2" d="M457.57,84.62c18.1,0,32.47,20.4,33.08,21.27a.57.57,0,0,1,0,.65c-.6.87-15,21.27-33.08,21.27s-32.47-20.4-33.07-21.27a.56.56,0,0,1,0-.65C425.1,105,439.48,84.62,457.57,84.62Zm31.91,21.59c-1.93-2.63-15.62-20.46-31.91-20.46s-30,17.82-31.91,20.46c1.93,2.64,15.62,20.46,31.91,20.46S487.55,108.85,489.48,106.21Z"/></g><g class="cls-1"><path class="cls-2" d="M490.18,84.62a.57.57,0,1,1,0,1.13c-16.29,0-30,17.82-31.91,20.46,1.93,2.64,15.62,20.46,31.91,20.46a.57.57,0,1,1,0,1.13c-18.1,0-32.47-20.4-33.08-21.27a.57.57,0,0,1,0-.65C457.71,105,472.08,84.62,490.18,84.62Z"/></g><g class="cls-1"><path class="cls-2" d="M718.44,126.67c18.1,0,32.47,20.4,33.08,21.27a.57.57,0,0,1,0,.65c-.6.87-15,21.27-33.08,21.27s-32.47-20.4-33.08-21.27a.57.57,0,0,1,0-.65C686,147.07,700.33,126.67,718.44,126.67Zm31.91,21.59c-1.93-2.64-15.62-20.46-31.91-20.46s-30,17.83-31.91,20.46c1.93,2.64,15.62,20.46,31.91,20.46S748.42,150.9,750.35,148.26Z"/></g><g class="cls-1"><path class="cls-2" d="M685.83,126.67c18.1,0,32.47,20.4,33.08,21.27a.57.57,0,0,1,0,.65c-.6.87-15,21.27-33.08,21.27s-32.47-20.4-33.07-21.27a.57.57,0,0,1,0-.65C653.36,147.07,667.73,126.67,685.83,126.67Zm31.91,21.59c-1.93-2.64-15.62-20.46-31.91-20.46s-30,17.83-31.91,20.46c1.93,2.64,15.61,20.46,31.91,20.46S715.81,150.9,717.74,148.26Z"/></g><g class="cls-1"><path class="cls-2" d="M653.22,126.67c18.1,0,32.47,20.4,33.07,21.27a.57.57,0,0,1,0,.65c-.6.87-15,21.27-33.07,21.27s-32.47-20.4-33.08-21.27a.57.57,0,0,1,0-.65C620.75,147.07,635.12,126.67,653.22,126.67Zm31.9,21.59c-1.93-2.64-15.62-20.46-31.9-20.46s-30,17.83-31.91,20.46c1.93,2.64,15.62,20.46,31.91,20.46S683.2,150.9,685.13,148.26Z"/></g><g class="cls-1"><path class="cls-2" d="M620.62,126.67c18.1,0,32.47,20.4,33.08,21.27a.57.57,0,0,1,0,.65c-.6.87-15,21.27-33.08,21.27s-32.47-20.4-33.07-21.27a.57.57,0,0,1,0-.65C588.14,147.07,602.51,126.67,620.62,126.67Zm31.91,21.59c-1.93-2.64-15.62-20.46-31.91-20.46s-30,17.83-31.91,20.46c1.93,2.64,15.62,20.46,31.91,20.46S650.59,150.9,652.52,148.26Z"/></g><g class="cls-1"><path class="cls-2" d="M588,126.67c18.1,0,32.47,20.4,33.07,21.27a.57.57,0,0,1,0,.65c-.6.87-15,21.27-33.07,21.27s-32.47-20.4-33.07-21.27a.57.57,0,0,1,0-.65C555.54,147.07,569.9,126.67,588,126.67Zm31.91,21.59C618,145.63,604.3,127.8,588,127.8s-30,17.83-31.91,20.46c1.93,2.64,15.62,20.46,31.91,20.46S618,150.9,619.92,148.26Z"/></g><g class="cls-1"><path class="cls-2" d="M555.4,126.67c18.1,0,32.47,20.4,33.07,21.27a.57.57,0,0,1,0,.65c-.6.87-15,21.27-33.07,21.27s-32.47-20.4-33.08-21.27a.57.57,0,0,1,0-.65C522.93,147.07,537.3,126.67,555.4,126.67Zm31.91,21.59c-1.93-2.64-15.62-20.46-31.91-20.46s-30,17.83-31.91,20.46c1.93,2.64,15.62,20.46,31.91,20.46S585.38,150.9,587.31,148.26Z"/></g><g class="cls-1"><path class="cls-2" d="M522.79,126.67c18.1,0,32.47,20.4,33.08,21.27a.57.57,0,0,1,0,.65c-.6.87-15,21.27-33.08,21.27s-32.47-20.4-33.08-21.27a.57.57,0,0,1,0-.65C490.32,147.07,504.69,126.67,522.79,126.67Zm31.91,21.59c-1.93-2.64-15.62-20.46-31.91-20.46s-30,17.83-31.91,20.46c1.93,2.64,15.62,20.46,31.91,20.46S552.77,150.9,554.7,148.26Z"/></g><g class="cls-1"><path class="cls-2" d="M490.18,126.67c18.1,0,32.47,20.4,33.08,21.27a.57.57,0,0,1,0,.65c-.6.87-15,21.27-33.08,21.27a.57.57,0,1,1,0-1.13c16.29,0,30-17.82,31.91-20.46-1.93-2.64-15.62-20.46-31.91-20.46a.57.57,0,1,1,0-1.13Z"/></g><g class="cls-1"><path class="cls-2" d="M229.32,126.67c18.1,0,32.47,20.4,33.08,21.27a.57.57,0,0,1,0,.65c-.6.87-15,21.27-33.08,21.27s-32.47-20.4-33.07-21.27a.57.57,0,0,1,0-.65C196.85,147.07,211.22,126.67,229.32,126.67Zm31.91,21.59c-1.93-2.64-15.62-20.46-31.91-20.46s-30,17.83-31.91,20.46c1.93,2.64,15.62,20.46,31.91,20.46S259.3,150.9,261.23,148.26Z"/></g><g class="cls-1"><path class="cls-2" d="M196.71,126.67c18.1,0,32.47,20.4,33.08,21.27a.57.57,0,0,1,0,.65c-.6.87-15,21.27-33.08,21.27s-32.47-20.4-33.07-21.27a.57.57,0,0,1,0-.65C164.24,147.07,178.61,126.67,196.71,126.67Zm31.91,21.59c-1.93-2.64-15.62-20.46-31.91-20.46s-30,17.83-31.91,20.46c1.94,2.64,15.61,20.46,31.91,20.46S226.69,150.9,228.62,148.26Z"/></g><g class="cls-1"><path class="cls-2" d="M164.11,126.67c18.1,0,32.47,20.4,33.07,21.27a.57.57,0,0,1,0,.65c-.6.87-15,21.27-33.07,21.27s-32.47-20.4-33.08-21.27a.57.57,0,0,1,0-.65C131.63,147.07,146,126.67,164.11,126.67ZM196,148.26c-1.94-2.64-15.62-20.46-31.91-20.46s-30,17.83-31.91,20.46c1.93,2.64,15.62,20.46,31.91,20.46S194.08,150.9,196,148.26Z"/></g><g class="cls-1"><path class="cls-2" d="M131.5,126.67c18.1,0,32.47,20.4,33.07,21.27a.57.57,0,0,1,0,.65c-.6.87-15,21.27-33.07,21.27S99,149.45,98.42,148.59a.57.57,0,0,1,0-.65C99,147.07,113.4,126.67,131.5,126.67Zm31.91,21.59c-1.93-2.64-15.62-20.46-31.91-20.46s-30,17.83-31.91,20.46c1.93,2.64,15.61,20.46,31.91,20.46S161.48,150.9,163.41,148.26Z"/></g><g class="cls-1"><path class="cls-2" d="M98.89,126.67c18.1,0,32.47,20.4,33.07,21.27a.57.57,0,0,1,0,.65c-.6.87-15,21.27-33.07,21.27s-32.47-20.4-33.07-21.27a.57.57,0,0,1,0-.65C66.42,147.07,80.79,126.67,98.89,126.67Zm31.91,21.59c-1.93-2.64-15.62-20.46-31.91-20.46s-30,17.83-31.91,20.46c1.93,2.64,15.61,20.46,31.91,20.46S128.87,150.9,130.8,148.26Z"/></g><g class="cls-1"><path class="cls-2" d="M66.29,126.67c18.1,0,32.47,20.4,33.07,21.27a.57.57,0,0,1,0,.65c-.6.87-15,21.27-33.07,21.27s-32.47-20.4-33.08-21.27a.57.57,0,0,1,0-.65C33.81,147.07,48.18,126.67,66.29,126.67Zm31.91,21.59c-1.94-2.64-15.62-20.46-31.91-20.46s-30,17.83-31.91,20.46c1.93,2.64,15.61,20.46,31.91,20.46S96.26,150.9,98.19,148.26Z"/></g><g class="cls-1"><path class="cls-2" d="M33.68,126.67c18.1,0,32.47,20.4,33.07,21.27a.57.57,0,0,1,0,.65c-.6.87-15,21.27-33.07,21.27S1.2,149.45.6,148.59a.57.57,0,0,1,0-.65C1.2,147.07,15.57,126.67,33.68,126.67Zm31.91,21.59C63.65,145.63,50,127.8,33.68,127.8s-30,17.83-31.91,20.46c1.93,2.64,15.61,20.46,31.91,20.46S63.65,150.9,65.59,148.26Z"/></g><g class="cls-1"><path class="cls-2" d="M1.07,126.67c18.1,0,32.47,20.4,33.07,21.27a.56.56,0,0,1,0,.65c-.6.87-15,21.27-33.07,21.27a.57.57,0,1,1,0-1.13c16.29,0,30-17.82,31.91-20.46C31,145.63,17.36,127.8,1.07,127.8a.57.57,0,1,1,0-1.13Z"/></g><g class="cls-1"><path class="cls-2" d="M261.93,126.67c18.1,0,32.48,20.4,33.08,21.27a.56.56,0,0,1,0,.64c-.6.87-15,21.27-33.08,21.27s-32.47-20.4-33.07-21.27a.56.56,0,0,1,0-.64C229.46,147.07,243.83,126.67,261.93,126.67Zm31.91,21.59c-1.93-2.64-15.61-20.46-31.91-20.46S232,145.62,230,148.26c1.93,2.64,15.62,20.46,31.91,20.46S291.91,150.89,293.84,148.26Z"/></g><g class="cls-1"><path class="cls-2" d="M294.54,126.67c18.1,0,32.47,20.4,33.07,21.27a.57.57,0,0,1,0,.64c-.6.87-15,21.27-33.07,21.27s-32.47-20.4-33.07-21.27a.56.56,0,0,1,0-.64C262.07,147.07,276.44,126.67,294.54,126.67Zm31.91,21.59c-1.93-2.64-15.61-20.46-31.91-20.46s-30,17.82-31.91,20.46c1.93,2.64,15.62,20.46,31.91,20.46S324.51,150.89,326.45,148.26Z"/></g><g class="cls-1"><path class="cls-2" d="M327.14,126.67c18.1,0,32.48,20.4,33.08,21.27a.56.56,0,0,1,0,.64c-.6.87-15,21.27-33.08,21.27s-32.47-20.4-33.07-21.27a.56.56,0,0,1,0-.64C294.68,147.07,309,126.67,327.14,126.67Zm31.91,21.59c-1.93-2.64-15.62-20.46-31.91-20.46s-30,17.82-31.9,20.46c1.93,2.64,15.62,20.46,31.9,20.46S357.12,150.89,359.05,148.26Z"/></g><g class="cls-1"><path class="cls-2" d="M359.75,126.67c18.1,0,32.47,20.4,33.08,21.27a.56.56,0,0,1,0,.64c-.6.87-15,21.27-33.08,21.27s-32.47-20.4-33.07-21.27a.56.56,0,0,1,0-.64C327.28,147.07,341.66,126.67,359.75,126.67Zm31.91,21.59c-1.93-2.64-15.62-20.46-31.91-20.46s-30,17.82-31.91,20.46c1.93,2.64,15.62,20.46,31.91,20.46S389.73,150.89,391.66,148.26Z"/></g><g class="cls-1"><path class="cls-2" d="M392.36,126.67c18.1,0,32.47,20.4,33.07,21.27a.57.57,0,0,1,0,.64c-.6.87-15,21.27-33.07,21.27s-32.47-20.4-33.07-21.27a.55.55,0,0,1,0-.64C359.89,147.07,374.26,126.67,392.36,126.67Zm31.91,21.59c-1.93-2.64-15.61-20.46-31.91-20.46s-30,17.82-31.91,20.46c1.93,2.64,15.62,20.46,31.91,20.46S422.34,150.89,424.27,148.26Z"/></g><g class="cls-1"><path class="cls-2" d="M425,126.67c18.1,0,32.47,20.4,33.08,21.27a.56.56,0,0,1,0,.64c-.6.87-15,21.27-33.08,21.27s-32.47-20.4-33.07-21.27a.55.55,0,0,1,0-.64C392.5,147.07,406.87,126.67,425,126.67Zm31.91,21.59c-1.93-2.64-15.62-20.46-31.91-20.46s-30,17.82-31.91,20.46c1.93,2.64,15.62,20.46,31.91,20.46S454.95,150.89,456.88,148.26Z"/></g><g class="cls-1"><path class="cls-2" d="M457.57,126.67c18.1,0,32.47,20.4,33.08,21.27a.56.56,0,0,1,0,.64c-.6.87-15,21.27-33.08,21.27s-32.47-20.4-33.07-21.27a.55.55,0,0,1,0-.64C425.1,147.07,439.48,126.67,457.57,126.67Zm31.91,21.59c-1.93-2.64-15.62-20.46-31.91-20.46s-30,17.82-31.91,20.46c1.93,2.64,15.62,20.46,31.91,20.46S487.55,150.89,489.48,148.26Z"/></g><g class="cls-1"><path class="cls-2" d="M490.18,126.67a.57.57,0,1,1,0,1.13c-16.29,0-30,17.82-31.91,20.46,1.93,2.64,15.62,20.46,31.91,20.46a.57.57,0,1,1,0,1.13c-18.1,0-32.47-20.4-33.08-21.27a.56.56,0,0,1,0-.64C457.71,147.07,472.08,126.67,490.18,126.67Z"/></g><g class="cls-1"><path class="cls-2" d="M718.44,168.72c18.1,0,32.47,20.4,33.08,21.27a.56.56,0,0,1,0,.64c-.6.87-15,21.27-33.08,21.27S686,191.5,685.36,190.63a.56.56,0,0,1,0-.64C686,189.12,700.34,168.72,718.44,168.72Zm31.91,21.59c-1.93-2.63-15.62-20.46-31.91-20.46s-30,17.82-31.91,20.46c1.93,2.63,15.62,20.46,31.91,20.46S748.42,192.94,750.35,190.31Z"/></g><g class="cls-1"><path class="cls-2" d="M685.83,168.72c18.1,0,32.47,20.4,33.08,21.27a.56.56,0,0,1,0,.64c-.6.87-15,21.27-33.08,21.27s-32.47-20.4-33.07-21.27a.56.56,0,0,1,0-.64C653.36,189.12,667.73,168.72,685.83,168.72Zm31.91,21.59c-1.93-2.63-15.62-20.46-31.91-20.46s-30,17.82-31.9,20.46c1.93,2.63,15.61,20.46,31.9,20.46S715.81,192.94,717.74,190.31Z"/></g><g class="cls-1"><path class="cls-2" d="M653.22,168.72c18.1,0,32.47,20.4,33.07,21.27a.56.56,0,0,1,0,.64c-.6.87-15,21.27-33.07,21.27s-32.47-20.4-33.08-21.27a.56.56,0,0,1,0-.64C620.75,189.12,635.12,168.72,653.22,168.72Zm31.9,21.59c-1.93-2.63-15.62-20.46-31.9-20.46s-30,17.82-31.91,20.46c1.93,2.63,15.62,20.46,31.91,20.46S683.2,192.94,685.13,190.31Z"/></g><g class="cls-1"><path class="cls-2" d="M620.62,168.72c18.1,0,32.47,20.4,33.08,21.27a.56.56,0,0,1,0,.64c-.6.87-15,21.27-33.08,21.27s-32.47-20.4-33.07-21.27a.56.56,0,0,1,0-.64C588.14,189.12,602.51,168.72,620.62,168.72Zm31.91,21.59c-1.93-2.63-15.62-20.46-31.91-20.46s-30,17.82-31.91,20.46c1.93,2.63,15.62,20.46,31.91,20.46S650.59,192.94,652.52,190.31Z"/></g><g class="cls-1"><path class="cls-2" d="M588,168.72c18.1,0,32.47,20.4,33.07,21.27a.56.56,0,0,1,0,.64c-.6.87-15,21.27-33.07,21.27s-32.47-20.4-33.07-21.27a.56.56,0,0,1,0-.64C555.54,189.12,569.9,168.72,588,168.72Zm31.91,21.59C618,187.67,604.3,169.85,588,169.85s-30,17.82-31.91,20.46c1.93,2.63,15.62,20.46,31.91,20.46S618,192.94,619.92,190.31Z"/></g><g class="cls-1"><path class="cls-2" d="M555.4,168.72c18.1,0,32.47,20.4,33.07,21.27a.56.56,0,0,1,0,.64c-.6.87-15,21.27-33.07,21.27s-32.47-20.4-33.08-21.27a.56.56,0,0,1,0-.64C522.93,189.12,537.3,168.72,555.4,168.72Zm31.91,21.59c-1.93-2.63-15.62-20.46-31.91-20.46s-30,17.82-31.91,20.46c1.93,2.63,15.62,20.46,31.91,20.46S585.38,192.94,587.31,190.31Z"/></g><g class="cls-1"><path class="cls-2" d="M522.79,168.72c18.1,0,32.47,20.4,33.08,21.27a.56.56,0,0,1,0,.64c-.6.87-15,21.27-33.08,21.27s-32.47-20.4-33.08-21.27a.56.56,0,0,1,0-.64C490.32,189.12,504.69,168.72,522.79,168.72Zm31.91,21.59c-1.93-2.63-15.62-20.46-31.91-20.46s-30,17.82-31.91,20.46c1.93,2.63,15.62,20.46,31.91,20.46S552.77,192.94,554.7,190.31Z"/></g><g class="cls-1"><path class="cls-2" d="M490.18,168.72c18.1,0,32.47,20.4,33.08,21.27a.56.56,0,0,1,0,.64c-.6.87-15,21.27-33.08,21.27a.57.57,0,1,1,0-1.13c16.29,0,30-17.82,31.91-20.46-1.93-2.64-15.62-20.46-31.91-20.46a.57.57,0,1,1,0-1.13Z"/></g><g class="cls-1"><path class="cls-2" d="M229.32,168.72c18.1,0,32.47,20.4,33.08,21.27a.56.56,0,0,1,0,.64c-.6.87-15,21.27-33.08,21.27s-32.47-20.4-33.07-21.27a.56.56,0,0,1,0-.64C196.85,189.12,211.22,168.72,229.32,168.72Zm31.91,21.59c-1.93-2.63-15.62-20.46-31.91-20.46s-30,17.82-31.91,20.46c1.93,2.63,15.62,20.46,31.91,20.46S259.3,192.94,261.23,190.31Z"/></g><g class="cls-1"><path class="cls-2" d="M196.71,168.72c18.1,0,32.47,20.4,33.08,21.27a.56.56,0,0,1,0,.64c-.6.87-15,21.27-33.08,21.27s-32.47-20.4-33.07-21.27a.56.56,0,0,1,0-.64C164.24,189.12,178.61,168.72,196.71,168.72Zm31.91,21.59c-1.93-2.63-15.62-20.46-31.91-20.46s-30,17.82-31.91,20.46c1.94,2.63,15.62,20.46,31.91,20.46S226.69,192.94,228.62,190.31Z"/></g><g class="cls-1"><path class="cls-2" d="M164.11,168.72c18.1,0,32.47,20.4,33.07,21.27a.56.56,0,0,1,0,.64c-.6.87-15,21.27-33.07,21.27S131.63,191.5,131,190.63a.56.56,0,0,1,0-.64C131.63,189.12,146,168.72,164.11,168.72ZM196,190.31c-1.94-2.63-15.62-20.46-31.91-20.46s-30,17.82-31.91,20.46c1.93,2.63,15.62,20.46,31.91,20.46S194.08,192.94,196,190.31Z"/></g><g class="cls-1"><path class="cls-2" d="M131.5,168.72c18.1,0,32.47,20.4,33.07,21.27a.56.56,0,0,1,0,.64c-.6.87-15,21.27-33.07,21.27S99,191.5,98.42,190.63a.56.56,0,0,1,0-.64C99,189.12,113.4,168.72,131.5,168.72Zm31.91,21.59c-1.93-2.63-15.62-20.46-31.91-20.46s-30,17.82-31.91,20.46c1.93,2.63,15.61,20.46,31.91,20.46S161.48,192.94,163.41,190.31Z"/></g><g class="cls-1"><path class="cls-2" d="M98.89,168.72c18.1,0,32.47,20.4,33.07,21.27a.56.56,0,0,1,0,.64c-.6.87-15,21.27-33.07,21.27s-32.47-20.4-33.07-21.27a.56.56,0,0,1,0-.64C66.42,189.12,80.79,168.72,98.89,168.72Zm31.91,21.59c-1.93-2.63-15.62-20.46-31.91-20.46s-30,17.82-31.91,20.46c1.93,2.63,15.61,20.46,31.91,20.46S128.87,192.94,130.8,190.31Z"/></g><g class="cls-1"><path class="cls-2" d="M66.29,168.72c18.1,0,32.47,20.4,33.07,21.27a.56.56,0,0,1,0,.64c-.6.87-15,21.27-33.07,21.27s-32.47-20.4-33.08-21.27a.56.56,0,0,1,0-.64C33.81,189.12,48.18,168.72,66.29,168.72Zm31.91,21.59c-1.94-2.63-15.62-20.46-31.91-20.46s-30,17.82-31.91,20.46c1.93,2.63,15.61,20.46,31.91,20.46S96.26,192.94,98.19,190.31Z"/></g><g class="cls-1"><path class="cls-2" d="M33.68,168.72c18.1,0,32.47,20.4,33.07,21.27a.56.56,0,0,1,0,.64c-.6.87-15,21.27-33.07,21.27S1.2,191.5.6,190.63a.56.56,0,0,1,0-.64C1.2,189.12,15.57,168.72,33.68,168.72Zm31.91,21.59c-1.93-2.63-15.62-20.46-31.91-20.46s-30,17.82-31.91,20.46c1.93,2.63,15.61,20.46,31.91,20.46S63.65,192.94,65.59,190.31Z"/></g><g class="cls-1"><path class="cls-2" d="M1.07,168.72c18.1,0,32.47,20.4,33.07,21.27a.55.55,0,0,1,0,.64c-.6.87-15,21.27-33.07,21.27a.57.57,0,1,1,0-1.13c16.29,0,30-17.82,31.91-20.46C31,187.67,17.36,169.85,1.07,169.85a.57.57,0,1,1,0-1.13Z"/></g><g class="cls-1"><path class="cls-2" d="M261.93,168.72c18.1,0,32.48,20.4,33.08,21.27a.55.55,0,0,1,0,.64c-.6.87-15,21.27-33.08,21.27s-32.47-20.4-33.07-21.27a.56.56,0,0,1,0-.64C229.46,189.11,243.83,168.72,261.93,168.72Zm31.91,21.59c-1.93-2.64-15.61-20.46-31.91-20.46S232,187.67,230,190.31c1.93,2.63,15.62,20.46,31.91,20.46S291.91,192.94,293.84,190.31Z"/></g><g class="cls-1"><path class="cls-2" d="M294.54,168.72c18.1,0,32.47,20.4,33.07,21.27a.56.56,0,0,1,0,.64c-.6.87-15,21.27-33.07,21.27s-32.47-20.4-33.07-21.27a.56.56,0,0,1,0-.64C262.07,189.11,276.44,168.72,294.54,168.72Zm31.91,21.59c-1.93-2.63-15.61-20.46-31.91-20.46s-30,17.82-31.91,20.46c1.93,2.63,15.62,20.46,31.91,20.46S324.51,192.94,326.45,190.31Z"/></g><g class="cls-1"><path class="cls-2" d="M327.14,168.72c18.1,0,32.48,20.4,33.08,21.27a.56.56,0,0,1,0,.64c-.6.87-15,21.27-33.08,21.27s-32.47-20.4-33.07-21.27a.56.56,0,0,1,0-.64C294.68,189.11,309,168.72,327.14,168.72Zm31.91,21.59c-1.93-2.63-15.62-20.46-31.91-20.46s-30,17.82-31.9,20.46c1.93,2.63,15.62,20.46,31.9,20.46S357.12,192.94,359.05,190.31Z"/></g><g class="cls-1"><path class="cls-2" d="M359.75,168.72c18.1,0,32.47,20.4,33.08,21.27a.56.56,0,0,1,0,.64c-.6.87-15,21.27-33.08,21.27s-32.47-20.4-33.07-21.27a.56.56,0,0,1,0-.64C327.28,189.11,341.66,168.72,359.75,168.72Zm31.91,21.59c-1.93-2.64-15.62-20.46-31.91-20.46s-30,17.82-31.91,20.46c1.93,2.63,15.62,20.46,31.91,20.46S389.73,192.94,391.66,190.31Z"/></g><g class="cls-1"><path class="cls-2" d="M392.36,168.72c18.1,0,32.47,20.4,33.07,21.27a.56.56,0,0,1,0,.64c-.6.87-15,21.27-33.07,21.27s-32.47-20.4-33.07-21.27a.55.55,0,0,1,0-.64C359.89,189.11,374.26,168.72,392.36,168.72Zm31.91,21.59c-1.93-2.63-15.61-20.46-31.91-20.46s-30,17.82-31.91,20.46c1.93,2.63,15.62,20.46,31.91,20.46S422.34,192.94,424.27,190.31Z"/></g><g class="cls-1"><path class="cls-2" d="M425,168.72c18.1,0,32.47,20.4,33.08,21.27a.56.56,0,0,1,0,.64c-.6.87-15,21.27-33.08,21.27s-32.47-20.4-33.07-21.27a.55.55,0,0,1,0-.64C392.5,189.11,406.87,168.72,425,168.72Zm31.91,21.59c-1.93-2.63-15.62-20.46-31.91-20.46s-30,17.82-31.91,20.46c1.93,2.63,15.62,20.46,31.91,20.46S454.95,192.94,456.88,190.31Z"/></g><g class="cls-1"><path class="cls-2" d="M457.57,168.72c18.1,0,32.47,20.4,33.08,21.27a.56.56,0,0,1,0,.64c-.6.87-15,21.27-33.08,21.27s-32.47-20.4-33.07-21.27a.55.55,0,0,1,0-.64C425.1,189.11,439.48,168.72,457.57,168.72Zm31.91,21.59c-1.93-2.64-15.62-20.46-31.91-20.46s-30,17.82-31.91,20.46c1.93,2.63,15.62,20.46,31.91,20.46S487.55,192.94,489.48,190.31Z"/></g><g class="cls-1"><path class="cls-2" d="M490.18,168.72a.57.57,0,1,1,0,1.13c-16.29,0-30,17.82-31.91,20.46,1.93,2.63,15.62,20.46,31.91,20.46a.57.57,0,1,1,0,1.13c-18.1,0-32.47-20.4-33.08-21.27a.56.56,0,0,1,0-.64C457.71,189.11,472.08,168.72,490.18,168.72Z"/></g><g class="cls-1"><path class="cls-2" d="M718.44,210.77c18.1,0,32.47,20.4,33.08,21.27a.56.56,0,0,1,0,.64c-.6.87-15,21.26-33.08,21.26s-32.47-20.4-33.08-21.27a.56.56,0,0,1,0-.64C686,231.17,700.34,210.77,718.44,210.77Zm31.91,21.59c-1.93-2.64-15.62-20.46-31.91-20.46s-30,17.83-31.91,20.46c1.93,2.63,15.62,20.45,31.91,20.45S748.42,235,750.35,232.36Z"/></g><g class="cls-1"><path class="cls-2" d="M685.83,210.77c18.1,0,32.47,20.4,33.08,21.27a.56.56,0,0,1,0,.64c-.6.87-15,21.27-33.08,21.27s-32.47-20.4-33.07-21.27a.56.56,0,0,1,0-.64C653.36,231.17,667.73,210.77,685.83,210.77Zm31.91,21.59c-1.93-2.64-15.62-20.46-31.91-20.46s-30,17.83-31.9,20.46c1.93,2.63,15.61,20.45,31.9,20.45S715.81,235,717.74,232.36Z"/></g><g class="cls-1"><path class="cls-2" d="M653.22,210.77c18.1,0,32.47,20.4,33.07,21.27a.56.56,0,0,1,0,.64c-.6.87-15,21.27-33.07,21.27s-32.47-20.4-33.08-21.27a.56.56,0,0,1,0-.64C620.75,231.17,635.12,210.77,653.22,210.77Zm31.9,21.59c-1.93-2.64-15.62-20.46-31.9-20.46s-30,17.83-31.91,20.46c1.93,2.63,15.62,20.45,31.91,20.45S683.2,235,685.13,232.36Z"/></g><g class="cls-1"><path class="cls-2" d="M620.62,210.77c18.1,0,32.47,20.4,33.08,21.27a.56.56,0,0,1,0,.64c-.6.87-15,21.26-33.08,21.26s-32.47-20.4-33.07-21.27a.56.56,0,0,1,0-.64C588.14,231.17,602.51,210.77,620.62,210.77Zm31.91,21.59c-1.93-2.64-15.62-20.46-31.91-20.46s-30,17.83-31.91,20.46c1.93,2.63,15.62,20.45,31.91,20.45S650.59,235,652.52,232.36Z"/></g><g class="cls-1"><path class="cls-2" d="M588,210.77c18.1,0,32.47,20.4,33.07,21.27a.56.56,0,0,1,0,.64c-.6.87-15,21.26-33.07,21.26s-32.47-20.4-33.07-21.27a.56.56,0,0,1,0-.64C555.54,231.17,569.9,210.77,588,210.77Zm31.91,21.59C618,229.72,604.3,211.9,588,211.9s-30,17.83-31.91,20.46C558,235,571.72,252.81,588,252.81S618,235,619.92,232.36Z"/></g><g class="cls-1"><path class="cls-2" d="M555.4,210.77c18.1,0,32.47,20.4,33.07,21.27a.56.56,0,0,1,0,.64c-.6.87-15,21.27-33.07,21.27s-32.47-20.4-33.08-21.27a.56.56,0,0,1,0-.64C522.93,231.17,537.3,210.77,555.4,210.77Zm31.91,21.59c-1.93-2.64-15.62-20.46-31.91-20.46s-30,17.83-31.91,20.46c1.93,2.63,15.62,20.45,31.91,20.45S585.38,235,587.31,232.36Z"/></g><g class="cls-1"><path class="cls-2" d="M522.79,210.77c18.1,0,32.47,20.4,33.08,21.27a.56.56,0,0,1,0,.64c-.6.87-15,21.27-33.08,21.27s-32.47-20.4-33.08-21.27a.56.56,0,0,1,0-.64C490.32,231.17,504.69,210.77,522.79,210.77Zm31.91,21.59c-1.93-2.64-15.62-20.46-31.91-20.46s-30,17.83-31.91,20.46c1.93,2.64,15.62,20.45,31.91,20.45S552.77,235,554.7,232.36Z"/></g><g class="cls-1"><path class="cls-2" d="M490.18,210.77c18.1,0,32.47,20.4,33.08,21.27a.56.56,0,0,1,0,.64c-.6.87-15,21.27-33.08,21.27a.57.57,0,1,1,0-1.13c16.29,0,30-17.82,31.91-20.45-1.93-2.64-15.62-20.46-31.91-20.46a.57.57,0,1,1,0-1.13Z"/></g><g class="cls-1"><path class="cls-2" d="M229.32,210.77c18.1,0,32.47,20.4,33.08,21.27a.56.56,0,0,1,0,.64c-.6.87-15,21.26-33.08,21.26s-32.47-20.4-33.07-21.27a.56.56,0,0,1,0-.64C196.85,231.17,211.22,210.77,229.32,210.77Zm31.91,21.59c-1.93-2.64-15.62-20.46-31.91-20.46s-30,17.83-31.91,20.46c1.93,2.64,15.62,20.45,31.91,20.45S259.3,235,261.23,232.36Z"/></g><g class="cls-1"><path class="cls-2" d="M196.71,210.77c18.1,0,32.47,20.4,33.08,21.27a.56.56,0,0,1,0,.64c-.6.87-15,21.27-33.08,21.27s-32.47-20.4-33.07-21.27a.56.56,0,0,1,0-.64C164.24,231.17,178.61,210.77,196.71,210.77Zm31.91,21.59c-1.93-2.64-15.62-20.46-31.91-20.46s-30,17.83-31.91,20.46c1.94,2.63,15.61,20.45,31.91,20.45S226.69,235,228.62,232.36Z"/></g><g class="cls-1"><path class="cls-2" d="M164.11,210.77c18.1,0,32.47,20.4,33.07,21.27a.56.56,0,0,1,0,.64c-.6.87-15,21.27-33.07,21.27s-32.47-20.4-33.08-21.27a.56.56,0,0,1,0-.64C131.63,231.17,146,210.77,164.11,210.77ZM196,232.36c-1.94-2.64-15.62-20.46-31.91-20.46s-30,17.83-31.91,20.46c1.93,2.63,15.62,20.45,31.91,20.45S194.08,235,196,232.36Z"/></g><g class="cls-1"><path class="cls-2" d="M131.5,210.77c18.1,0,32.47,20.4,33.07,21.27a.56.56,0,0,1,0,.64c-.6.87-15,21.26-33.07,21.26S99,233.55,98.42,232.68a.56.56,0,0,1,0-.64C99,231.17,113.4,210.77,131.5,210.77Zm31.91,21.59c-1.93-2.64-15.62-20.46-31.91-20.46s-30,17.83-31.91,20.46c1.93,2.64,15.61,20.45,31.91,20.45S161.48,235,163.41,232.36Z"/></g><g class="cls-1"><path class="cls-2" d="M98.89,210.77c18.1,0,32.47,20.4,33.07,21.27a.56.56,0,0,1,0,.64c-.6.87-15,21.26-33.07,21.26s-32.47-20.4-33.07-21.27a.56.56,0,0,1,0-.64C66.42,231.17,80.79,210.77,98.89,210.77Zm31.91,21.59c-1.93-2.64-15.62-20.46-31.91-20.46s-30,17.83-31.91,20.46c1.93,2.63,15.61,20.45,31.91,20.45S128.87,235,130.8,232.36Z"/></g><g class="cls-1"><path class="cls-2" d="M66.29,210.77c18.1,0,32.47,20.4,33.07,21.27a.56.56,0,0,1,0,.64c-.6.87-15,21.27-33.07,21.27s-32.47-20.4-33.08-21.27a.56.56,0,0,1,0-.64C33.81,231.17,48.18,210.77,66.29,210.77Zm31.91,21.59c-1.94-2.64-15.62-20.46-31.91-20.46s-30,17.83-31.91,20.46C36.31,235,50,252.81,66.29,252.81S96.26,235,98.19,232.36Z"/></g><g class="cls-1"><path class="cls-2" d="M33.68,210.77c18.1,0,32.47,20.4,33.07,21.27a.56.56,0,0,1,0,.64c-.6.87-15,21.26-33.07,21.26S1.2,233.55.6,232.68a.56.56,0,0,1,0-.64C1.2,231.17,15.57,210.77,33.68,210.77Zm31.91,21.59C63.65,229.72,50,211.9,33.68,211.9s-30,17.83-31.91,20.46C3.7,235,17.38,252.81,33.68,252.81S63.65,235,65.59,232.36Z"/></g><g class="cls-1"><path class="cls-2" d="M1.07,210.77c18.1,0,32.47,20.4,33.07,21.27a.55.55,0,0,1,0,.64c-.6.87-15,21.27-33.07,21.27a.57.57,0,1,1,0-1.13c16.29,0,30-17.82,31.91-20.45C31,229.72,17.36,211.9,1.07,211.9a.57.57,0,1,1,0-1.13Z"/></g><g class="cls-1"><path class="cls-2" d="M261.93,210.77c18.1,0,32.48,20.4,33.08,21.27a.56.56,0,0,1,0,.64c-.6.87-15,21.27-33.08,21.27s-32.47-20.4-33.07-21.27a.56.56,0,0,1,0-.64C229.46,231.16,243.83,210.77,261.93,210.77Zm31.91,21.59c-1.93-2.64-15.61-20.46-31.91-20.46S232,229.72,230,232.35c1.93,2.64,15.62,20.46,31.91,20.46S291.91,235,293.84,232.35Z"/></g><g class="cls-1"><path class="cls-2" d="M294.54,210.77c18.1,0,32.47,20.4,33.07,21.27a.56.56,0,0,1,0,.64c-.6.87-15,21.27-33.07,21.27s-32.47-20.4-33.07-21.27a.56.56,0,0,1,0-.64C262.07,231.16,276.44,210.77,294.54,210.77Zm31.91,21.59c-1.93-2.64-15.61-20.46-31.91-20.46s-30,17.82-31.91,20.46c1.93,2.64,15.62,20.46,31.91,20.46S324.51,235,326.45,232.35Z"/></g><g class="cls-1"><path class="cls-2" d="M327.14,210.77c18.1,0,32.48,20.4,33.08,21.27a.56.56,0,0,1,0,.64c-.6.87-15,21.27-33.08,21.27s-32.47-20.4-33.07-21.27a.56.56,0,0,1,0-.64C294.68,231.16,309,210.77,327.14,210.77Zm31.91,21.59c-1.93-2.64-15.62-20.46-31.91-20.46s-30,17.82-31.9,20.46c1.93,2.64,15.62,20.46,31.9,20.46S357.12,235,359.05,232.35Z"/></g><g class="cls-1"><path class="cls-2" d="M359.75,210.77c18.1,0,32.47,20.4,33.08,21.27a.56.56,0,0,1,0,.64c-.6.87-15,21.27-33.08,21.27s-32.47-20.4-33.07-21.27a.56.56,0,0,1,0-.64C327.28,231.16,341.66,210.77,359.75,210.77Zm31.91,21.59c-1.93-2.64-15.62-20.46-31.91-20.46s-30,17.82-31.91,20.46c1.93,2.64,15.62,20.46,31.91,20.46S389.73,235,391.66,232.35Z"/></g><g class="cls-1"><path class="cls-2" d="M392.36,210.77c18.1,0,32.47,20.4,33.07,21.27a.56.56,0,0,1,0,.64c-.6.87-15,21.27-33.07,21.27s-32.47-20.4-33.07-21.27a.55.55,0,0,1,0-.64C359.89,231.16,374.26,210.77,392.36,210.77Zm31.91,21.59c-1.93-2.64-15.61-20.46-31.91-20.46s-30,17.82-31.91,20.46c1.93,2.64,15.62,20.46,31.91,20.46S422.34,235,424.27,232.35Z"/></g><g class="cls-1"><path class="cls-2" d="M425,210.77c18.1,0,32.47,20.4,33.08,21.27a.56.56,0,0,1,0,.64c-.6.87-15,21.27-33.08,21.27s-32.47-20.4-33.07-21.27a.55.55,0,0,1,0-.64C392.5,231.16,406.87,210.77,425,210.77Zm31.91,21.59c-1.93-2.64-15.62-20.46-31.91-20.46s-30,17.82-31.91,20.46C395,235,408.68,252.81,425,252.81S454.95,235,456.88,232.35Z"/></g><g class="cls-1"><path class="cls-2" d="M457.57,210.77c18.1,0,32.47,20.4,33.08,21.27a.56.56,0,0,1,0,.64c-.6.87-15,21.27-33.08,21.27s-32.47-20.4-33.07-21.27a.55.55,0,0,1,0-.64C425.1,231.16,439.48,210.77,457.57,210.77Zm31.91,21.59c-1.93-2.64-15.62-20.46-31.91-20.46s-30,17.82-31.91,20.46c1.93,2.64,15.62,20.46,31.91,20.46S487.55,235,489.48,232.35Z"/></g><g class="cls-1"><path class="cls-2" d="M490.18,210.77a.57.57,0,1,1,0,1.13c-16.29,0-30,17.82-31.91,20.46,1.93,2.64,15.62,20.46,31.91,20.46a.57.57,0,1,1,0,1.13c-18.1,0-32.47-20.4-33.08-21.27a.56.56,0,0,1,0-.64C457.71,231.16,472.08,210.77,490.18,210.77Z"/></g></g></g></svg>